<?xml version="1.0" encoding="UTF-8"?>
<svg id="Layer_2" data-name="Layer 2" xmlns="http://www.w3.org/2000/svg" viewBox="0 0 209 170.5">
  <defs>
    <style>
      .cls-1 {
        fill: #ec673f;
      }

      .cls-2 {
        fill: #fff;
      }

      .cls-3 {
        fill: #222126;
      }
    </style>
  </defs>
  <g id="Layer_1-2" data-name="Layer 1">
    <g>
      <path class="cls-1" d="M0,0H209V66c0,57.71-46.79,104.5-104.5,104.5S0,123.71,0,66V0Z"/>
      <path class="cls-2" d="M80.51,103.81v4.69h-16.2v-24.26h5.46v19.57h10.74Z"/>
      <path class="cls-2" d="M83.87,84.24h5.46v24.26h-5.46v-24.26Z"/>
      <path class="cls-2" d="M103.69,94.22c.98-1.66,1.91-3.31,2.8-4.97s1.7-3.32,2.45-5.01h6.02c-1.33,2.61-2.71,5.15-4.13,7.6-1.42,2.45-2.93,4.91-4.51,7.39v9.27h-5.46v-9.21c-1.59-2.47-3.1-4.95-4.55-7.42-1.42-2.47-2.8-5.02-4.13-7.63h6.34c.75,1.68,1.55,3.35,2.42,5.01s1.79,3.31,2.76,4.97Z"/>
      <path class="cls-2" d="M127.27,108.99c-1.7,0-3.17-.23-4.41-.7-1.24-.49-2.26-1.15-3.08-1.99-.79-.86-1.39-1.88-1.78-3.04-.37-1.19-.56-2.5-.56-3.92v-15.09h5.46v14.63c0,.98,.1,1.82,.31,2.52,.23,.68,.54,1.24,.91,1.68,.4,.42,.86,.72,1.4,.91,.56,.19,1.17,.28,1.82,.28,1.33,0,2.4-.41,3.22-1.23,.84-.82,1.26-2.2,1.26-4.16v-14.63h5.46v15.09c0,1.42-.2,2.73-.6,3.92-.4,1.19-1,2.22-1.82,3.08-.82,.84-1.85,1.49-3.11,1.96-1.26,.47-2.75,.7-4.48,.7Z"/>
      <path class="cls-2" d="M22.75,76.29c-.09-.04-.16-.09-.21-.14-.04-.06-.07-.13-.08-.22-.01-.11,0-.23,.06-.37,.06-.14,.12-.3,.18-.5,.06-.19,.11-.41,.16-.67,.04-.25,.04-.55,0-.89-.04-.28-.11-.53-.21-.75-.1-.22-.22-.4-.36-.54-.14-.14-.3-.25-.48-.31-.18-.06-.36-.08-.55-.06-.25,.03-.45,.13-.6,.3-.15,.17-.26,.39-.35,.64-.09,.26-.16,.55-.22,.87-.05,.32-.11,.65-.18,.98-.06,.34-.15,.67-.25,.99-.09,.33-.23,.62-.4,.89-.17,.27-.38,.5-.65,.68-.26,.19-.6,.31-1.01,.36-.47,.06-.92,.03-1.34-.09-.42-.11-.79-.32-1.13-.61-.33-.29-.61-.66-.84-1.12-.23-.46-.38-1-.46-1.62-.09-.69-.06-1.35,.1-1.97,.16-.62,.39-1.15,.69-1.59l.8,.36c.1,.04,.18,.1,.23,.17,.06,.07,.1,.18,.12,.31,.02,.13-.01,.26-.09,.4-.08,.14-.16,.32-.25,.52-.08,.2-.15,.44-.21,.71-.05,.28-.05,.61,0,1.01,.04,.33,.12,.61,.23,.85,.12,.23,.26,.42,.42,.56,.17,.15,.35,.25,.54,.3,.2,.06,.4,.07,.6,.04,.26-.03,.47-.14,.63-.31,.16-.17,.29-.38,.38-.64,.09-.26,.17-.54,.22-.87,.05-.32,.11-.65,.17-.99,.06-.34,.15-.67,.24-1,.1-.33,.24-.63,.42-.9,.18-.26,.41-.49,.7-.68,.29-.18,.65-.3,1.08-.36,.39-.05,.77-.02,1.15,.09,.38,.12,.72,.31,1.03,.58,.31,.28,.58,.63,.79,1.06,.22,.43,.37,.94,.45,1.52,.09,.67,.06,1.28-.08,1.85-.14,.57-.37,1.07-.69,1.5l-.76-.33Z"/>
      <path class="cls-2" d="M27.27,86.78c.23,.71,.31,1.39,.26,2.04-.04,.65-.22,1.25-.53,1.79-.3,.54-.73,1.02-1.27,1.43-.54,.41-1.19,.74-1.95,.98-.76,.24-1.49,.35-2.17,.33-.68-.02-1.31-.16-1.87-.43-.56-.26-1.05-.65-1.47-1.15-.41-.5-.73-1.1-.96-1.82-.23-.72-.32-1.4-.28-2.05,.05-.65,.23-1.24,.53-1.79,.3-.54,.73-1.03,1.27-1.45,.55-.41,1.2-.74,1.96-.98,.76-.24,1.48-.35,2.16-.33,.69,.03,1.31,.17,1.87,.44,.57,.27,1.06,.65,1.47,1.15,.42,.5,.74,1.11,.97,1.83Zm-8.52,2.72c.29,.91,.82,1.5,1.58,1.75,.76,.26,1.7,.2,2.82-.15,1.12-.36,1.91-.86,2.39-1.51,.48-.65,.57-1.43,.28-2.35-.3-.93-.83-1.52-1.6-1.78-.76-.26-1.7-.2-2.82,.15-1.12,.36-1.91,.86-2.39,1.51-.47,.65-.56,1.45-.26,2.37Z"/>
      <path class="cls-2" d="M22.61,102.8l7.58-3.98-.38-1c-.04-.15-.05-.29-.03-.41,.03-.12,.11-.21,.24-.28l.72-.38,.73,1.4,.81-.43c.51-.27,1.01-.44,1.49-.5s.93-.03,1.35,.09c.43,.13,.82,.35,1.16,.66,.35,.31,.66,.71,.91,1.19,.21,.41,.35,.81,.41,1.22l-.89,.42c-.08,.03-.15,.04-.21,.02-.06-.02-.11-.07-.17-.13-.05-.06-.11-.13-.17-.23-.05-.1-.1-.2-.16-.31-.14-.27-.3-.49-.48-.68-.18-.18-.39-.31-.62-.39-.23-.07-.5-.08-.8-.03-.29,.05-.62,.17-.99,.36l-.76,.4,1.32,2.52-1.26,.66-1.3-2.47-7.6,3.99-.91-1.74Z"/>
      <path class="cls-2" d="M30.86,116.49c-.49-.66-.68-1.31-.57-1.94,.11-.63,.51-1.19,1.2-1.7l4.9-3.6-.7-.95c-.07-.09-.1-.19-.09-.29,.02-.1,.08-.19,.19-.28l.64-.47,1.16,1.19,2.7-1.44c.11-.05,.21-.06,.3-.03,.1,.02,.19,.09,.26,.18l.59,.8-2.75,2.02,1.71,2.32-1.14,.84-1.71-2.32-4.79,3.53c-.32,.24-.51,.49-.55,.77-.04,.28,.04,.54,.22,.78,.11,.15,.22,.26,.33,.33,.12,.08,.22,.14,.32,.18,.1,.04,.19,.07,.27,.1,.08,.03,.13,.06,.16,.1,.04,.05,.06,.1,.05,.15,0,.05-.01,.11-.04,.18l-.41,1.02c-.43-.08-.83-.26-1.22-.51-.39-.26-.72-.58-1.01-.96Z"/>
      <path class="cls-2" d="M54.83,126.57l-9.26,5.31-1.15-1.05c-.14-.13-.15-.3-.03-.53l2.87-6.34c.07-.16,.15-.31,.23-.46,.08-.15,.17-.3,.26-.44-.28,.22-.57,.41-.86,.58l-6.05,3.42c-.22,.14-.4,.13-.57-.02l-1.09-1,4.41-9.72,1.14,1.04c.11,.1,.18,.21,.21,.34,.03,.13,.02,.24-.03,.35l-2.85,5.85c-.13,.23-.25,.45-.38,.65-.13,.21-.26,.42-.39,.62,.21-.14,.41-.27,.63-.4,.22-.13,.44-.26,.66-.4l5.73-3.28c.1-.06,.21-.09,.32-.07,.12,0,.23,.06,.33,.15l.63,.57c.11,.1,.17,.21,.19,.32,.03,.12,.02,.23-.03,.34l-2.76,5.98c-.12,.24-.23,.47-.35,.7-.11,.22-.23,.44-.36,.66,.19-.15,.39-.3,.59-.44,.21-.15,.42-.29,.64-.44l5.58-3.36c.1-.06,.21-.09,.34-.07,.13,.02,.24,.07,.34,.16l1.09,.99Z"/>
      <path class="cls-2" d="M61.32,137.1c-.7-.38-1.31-.66-1.84-.86-.52-.2-.98-.32-1.36-.35-.38-.04-.69,0-.94,.11-.24,.11-.43,.28-.56,.51-.13,.22-.2,.43-.23,.63-.02,.2,0,.39,.07,.56,.07,.17,.17,.33,.31,.47,.14,.14,.31,.27,.5,.39,.26,.15,.51,.26,.75,.34,.25,.08,.5,.12,.74,.14,.25,.01,.5,0,.75-.04,.25-.04,.52-.1,.79-.18l1.01-1.73Zm-2.8-6.54c.76-.18,1.49-.22,2.2-.12,.71,.11,1.41,.36,2.09,.76,.5,.29,.89,.63,1.18,1.03,.29,.39,.48,.8,.58,1.25,.09,.45,.09,.91-.02,1.4-.1,.49-.3,.98-.59,1.48l-3.27,5.59-.75-.44c-.17-.1-.28-.2-.33-.3-.05-.11-.06-.25-.03-.43l.27-.87c-.35,.08-.67,.13-.99,.16-.31,.03-.62,.03-.93,0-.3-.03-.6-.09-.91-.19-.3-.1-.62-.25-.95-.44-.35-.2-.64-.44-.89-.71-.24-.27-.42-.57-.53-.9-.11-.33-.15-.68-.11-1.05,.05-.37,.18-.75,.41-1.14,.2-.35,.49-.62,.86-.83,.38-.21,.85-.32,1.42-.33,.57,0,1.25,.11,2.02,.35,.78,.24,1.67,.64,2.68,1.2l.37-.64c.39-.66,.54-1.24,.45-1.73-.09-.49-.41-.9-.96-1.22-.37-.21-.71-.35-1.01-.41-.3-.05-.58-.07-.83-.07-.24,0-.46,.01-.65,.02-.19,.01-.35-.02-.5-.1-.12-.07-.2-.16-.25-.27-.04-.11-.07-.22-.07-.34l.02-.72Z"/>
      <path class="cls-2" d="M72.74,138.4c.54-.51,1.1-.85,1.66-1.04s1.15-.17,1.75,.06c.21,.08,.39,.18,.55,.3,.17,.12,.31,.24,.41,.39l-.65,1.33c-.11,.15-.24,.2-.4,.13-.09-.03-.21-.1-.37-.2-.16-.1-.34-.2-.54-.27-.29-.11-.57-.17-.83-.17-.26,0-.51,.04-.75,.14-.24,.1-.47,.24-.7,.43-.23,.18-.46,.4-.69,.66l-2.28,5.94-1.82-.7,3.64-9.49,1.05,.4c.2,.08,.32,.17,.36,.27,.05,.1,.05,.24,.02,.43l-.4,1.38Z"/>
      <path class="cls-2" d="M88.73,144.96c.08-.38,.09-.74,.04-1.08-.04-.34-.14-.65-.3-.93-.16-.28-.38-.51-.65-.7-.27-.19-.61-.33-1-.4-.8-.16-1.48-.06-2.04,.32-.55,.37-.97,.96-1.26,1.76l5.22,1.04Zm.64,4.98c-.29,.23-.61,.41-.96,.55-.35,.13-.71,.23-1.08,.28-.37,.05-.75,.07-1.13,.06-.38-.01-.75-.06-1.11-.13-.69-.14-1.3-.38-1.84-.73-.53-.35-.97-.79-1.32-1.32-.33-.54-.56-1.16-.67-1.87-.1-.71-.07-1.5,.11-2.37,.14-.69,.38-1.32,.71-1.87,.34-.56,.75-1.02,1.24-1.38,.49-.36,1.06-.61,1.69-.75,.63-.14,1.31-.14,2.04,0,.61,.12,1.15,.34,1.62,.64,.48,.3,.86,.68,1.16,1.13,.3,.45,.49,.98,.59,1.58,.1,.6,.09,1.26-.06,1.97-.06,.29-.13,.49-.22,.58-.08,.08-.22,.11-.39,.07l-6.53-1.31c-.1,.6-.12,1.14-.06,1.61,.06,.47,.2,.88,.4,1.22,.21,.35,.48,.63,.82,.85,.34,.22,.73,.37,1.18,.46,.42,.08,.8,.11,1.13,.07,.33-.04,.62-.09,.87-.15,.25-.07,.46-.14,.63-.21,.18-.07,.32-.09,.44-.06,.16,.03,.27,.11,.33,.25l.41,.82Z"/>
      <path class="cls-2" d="M113.77,143.12c-.04,.09-.09,.16-.15,.21-.06,.04-.13,.06-.22,.07-.11,.01-.23-.01-.37-.07-.13-.06-.3-.12-.49-.19-.19-.07-.41-.12-.66-.17-.25-.05-.55-.05-.89-.02-.28,.03-.53,.09-.75,.19-.22,.09-.4,.21-.55,.35-.15,.14-.25,.29-.32,.48-.07,.18-.09,.36-.07,.55,.03,.25,.12,.45,.28,.6,.17,.15,.38,.27,.63,.37,.26,.09,.54,.17,.86,.24,.32,.06,.65,.13,.98,.2,.34,.07,.66,.16,.98,.27,.33,.1,.62,.24,.88,.42,.27,.17,.49,.4,.66,.66,.18,.27,.29,.61,.34,1.02,.05,.47,0,.92-.12,1.34-.12,.41-.34,.79-.64,1.11-.3,.33-.68,.6-1.14,.81-.47,.22-1.01,.36-1.63,.42-.7,.07-1.35,.03-1.97-.14-.61-.17-1.14-.41-1.57-.73l.38-.79c.04-.1,.1-.18,.18-.23,.07-.06,.18-.1,.31-.11,.13-.01,.26,.02,.4,.1,.14,.08,.31,.17,.51,.26,.2,.09,.43,.16,.71,.23,.27,.06,.61,.07,1.01,.02,.33-.03,.62-.11,.85-.21,.24-.11,.43-.25,.57-.4,.15-.16,.25-.34,.32-.54,.06-.19,.08-.39,.06-.6-.03-.26-.13-.48-.3-.63-.16-.16-.38-.3-.63-.4-.25-.1-.54-.18-.86-.24-.32-.06-.65-.13-.99-.2-.34-.07-.67-.16-.99-.27-.33-.11-.62-.25-.89-.44-.26-.19-.48-.42-.67-.71-.18-.29-.29-.65-.34-1.09-.04-.39,0-.77,.12-1.15,.13-.38,.33-.71,.61-1.02,.28-.3,.64-.56,1.08-.77,.44-.21,.95-.35,1.54-.41,.67-.07,1.28-.03,1.84,.13,.57,.15,1.06,.4,1.49,.73l-.35,.75Z"/>
      <path class="cls-2" d="M124.36,138.86c.72-.21,1.4-.28,2.04-.21,.65,.06,1.24,.25,1.77,.57,.54,.32,1.01,.75,1.4,1.31,.4,.55,.71,1.21,.93,1.98,.23,.77,.32,1.49,.28,2.18-.04,.68-.19,1.3-.48,1.86-.28,.55-.67,1.03-1.18,1.44-.51,.4-1.12,.7-1.84,.91-.72,.21-1.41,.29-2.06,.23-.65-.07-1.24-.26-1.77-.57s-1.01-.75-1.41-1.31c-.4-.56-.71-1.22-.94-1.99-.22-.77-.32-1.49-.28-2.17,.04-.69,.2-1.31,.49-1.86,.28-.56,.67-1.04,1.18-1.44,.51-.41,1.13-.72,1.85-.93Zm2.51,8.58c.92-.27,1.52-.78,1.79-1.54,.27-.75,.24-1.69-.09-2.82-.33-1.13-.81-1.93-1.45-2.42-.64-.49-1.42-.61-2.34-.34-.93,.27-1.54,.79-1.82,1.55-.27,.75-.24,1.69,.09,2.82,.33,1.13,.81,1.93,1.45,2.42,.64,.49,1.43,.59,2.36,.32Z"/>
      <path class="cls-2" d="M135.1,129.99l6.31,13.34-1.77,.84-6.31-13.34,1.77-.84Z"/>
      <path class="cls-2" d="M150.19,126.2l5.73,8.39-.97,.66c-.22,.15-.44,.14-.65-.03l-.69-.76c-.05,.32-.12,.62-.21,.92-.09,.29-.21,.58-.35,.85-.15,.26-.33,.51-.54,.75-.21,.24-.46,.46-.75,.66-.46,.32-.92,.52-1.38,.6-.45,.08-.89,.07-1.31-.05-.43-.12-.84-.33-1.23-.64-.39-.31-.74-.7-1.07-1.17l-3.65-5.34,1.62-1.1,3.65,5.34c.41,.6,.87,.97,1.37,1.12,.5,.14,1.04,.02,1.6-.37,.41-.28,.73-.64,.96-1.08,.22-.44,.37-.94,.46-1.5l-4.2-6.14,1.61-1.1Z"/>
      <path class="cls-2" d="M165.29,126.63c-.59,.57-1.2,.85-1.84,.83-.64-.02-1.25-.34-1.85-.95l-4.25-4.35-.85,.82c-.08,.08-.17,.12-.28,.13-.1,0-.21-.05-.3-.15l-.55-.56,1.02-1.32-1.8-2.48c-.06-.1-.08-.2-.07-.29,.01-.1,.06-.2,.15-.28l.71-.69,2.38,2.44,2.06-2.01,.99,1.02-2.06,2.01,4.16,4.26c.28,.29,.56,.43,.84,.44,.28,0,.53-.11,.75-.32,.13-.12,.22-.25,.28-.37,.06-.13,.11-.24,.14-.35,.02-.11,.04-.2,.06-.28,.01-.08,.04-.14,.08-.18,.05-.05,.1-.07,.14-.07,.05,0,.11,0,.18,.02l1.07,.27c-.02,.43-.14,.86-.34,1.28-.2,.42-.47,.8-.81,1.13Z"/>
      <path class="cls-2" d="M165.29,111.05l8,6.26-1.2,1.54-8-6.26,1.2-1.54Zm-2.25-2.22c.14,.11,.26,.25,.34,.41,.08,.16,.13,.32,.15,.5,.02,.17,0,.34-.04,.52-.05,.17-.13,.33-.24,.47-.11,.14-.24,.26-.39,.34-.16,.08-.32,.13-.49,.16-.17,.02-.35,0-.52-.04-.17-.05-.33-.13-.47-.24-.15-.11-.26-.25-.35-.4-.09-.16-.14-.33-.16-.49-.02-.18-.01-.35,.04-.52,.04-.17,.12-.33,.23-.47,.11-.14,.25-.26,.41-.34,.15-.09,.32-.14,.49-.16,.17-.03,.35-.02,.52,.03,.17,.04,.33,.12,.48,.23Z"/>
      <path class="cls-2" d="M171.29,101.62c.36-.65,.8-1.18,1.3-1.59,.5-.41,1.06-.69,1.66-.84,.6-.15,1.24-.17,1.92-.06,.67,.11,1.35,.36,2.05,.75,.7,.39,1.28,.84,1.73,1.35,.46,.51,.78,1.07,.97,1.66,.19,.59,.25,1.21,.17,1.86-.08,.64-.3,1.29-.66,1.94-.37,.66-.8,1.2-1.31,1.61-.51,.4-1.06,.68-1.66,.84-.6,.15-1.24,.18-1.92,.07-.68-.11-1.36-.37-2.06-.75-.7-.39-1.28-.84-1.72-1.35-.45-.52-.77-1.07-.96-1.67-.2-.6-.25-1.21-.17-1.86,.08-.65,.3-1.3,.67-1.96Zm7.82,4.34c.47-.84,.53-1.62,.2-2.35-.34-.73-1.02-1.38-2.04-1.95-1.03-.57-1.94-.8-2.73-.7-.8,.1-1.43,.57-1.9,1.4-.47,.85-.54,1.65-.2,2.38,.34,.73,1.02,1.38,2.04,1.94,1.03,.57,1.94,.8,2.73,.7,.8-.11,1.43-.59,1.91-1.44Z"/>
      <path class="cls-2" d="M178.25,90.21c-.16-.28-.29-.56-.4-.85-.11-.29-.19-.58-.24-.87-.05-.3-.06-.61-.04-.93,.02-.32,.08-.65,.19-.99,.17-.53,.41-.97,.71-1.32,.31-.35,.67-.61,1.08-.78,.4-.17,.85-.26,1.35-.25,.5,0,1.02,.09,1.56,.27l6.16,1.97-.6,1.87-6.16-1.97c-.69-.22-1.28-.23-1.76-.04-.49,.19-.84,.62-1.05,1.27-.15,.48-.18,.96-.09,1.45,.09,.48,.27,.96,.55,1.44l7.1,2.26-.59,1.86-9.68-3.09,.36-1.11c.08-.26,.26-.38,.53-.37l1.02,.17Z"/>
      <path class="cls-2" d="M182.95,70.61c.08,.06,.13,.13,.17,.19,.03,.06,.03,.14,.02,.23-.01,.11-.07,.22-.15,.34-.09,.12-.19,.26-.3,.44-.11,.17-.22,.37-.32,.6-.11,.24-.18,.52-.22,.86-.04,.28-.03,.54,0,.78,.04,.23,.11,.44,.21,.61,.1,.18,.23,.32,.39,.42,.15,.11,.33,.17,.52,.2,.25,.03,.47-.01,.65-.14,.18-.13,.35-.31,.5-.53,.15-.23,.29-.49,.43-.78,.13-.3,.27-.6,.42-.9,.15-.31,.31-.61,.49-.9,.17-.29,.38-.55,.61-.76,.23-.22,.5-.38,.8-.49,.3-.12,.66-.15,1.07-.09,.47,.06,.89,.2,1.28,.43,.38,.22,.69,.51,.94,.88,.25,.36,.43,.79,.53,1.3,.1,.5,.11,1.07,.03,1.69-.09,.69-.29,1.32-.6,1.88-.31,.56-.67,1.01-1.07,1.36l-.68-.55c-.09-.07-.15-.14-.18-.23-.04-.09-.06-.19-.04-.33,.02-.13,.08-.25,.19-.37,.11-.12,.23-.27,.37-.44,.13-.17,.26-.38,.38-.63,.12-.25,.21-.58,.26-.98,.04-.33,.04-.62,0-.88-.05-.26-.14-.47-.26-.65-.12-.18-.27-.33-.45-.43-.18-.1-.37-.17-.57-.2-.26-.03-.49,.01-.68,.14-.2,.12-.38,.3-.53,.53-.16,.22-.3,.48-.43,.78-.13,.3-.27,.6-.42,.91-.15,.31-.31,.61-.49,.9s-.39,.55-.63,.76c-.24,.21-.53,.37-.85,.49-.32,.11-.7,.13-1.14,.08-.39-.05-.75-.18-1.09-.38-.34-.21-.62-.49-.85-.83-.23-.35-.4-.75-.5-1.22-.11-.48-.12-1.01-.05-1.59,.09-.67,.27-1.26,.55-1.76,.28-.51,.63-.94,1.05-1.28l.65,.52Z"/>
      <path class="cls-2" d="M115.72,46.18c-.59,.59-1.04,1.31-1.33,2.1-.28,.79-.39,1.63-.31,2.46l-.03-.03c.08,.98-.05,1.97-.39,2.9-.34,.93-.88,1.76-1.57,2.46-.7,.7-1.54,1.23-2.46,1.57-.93,.34-1.91,.47-2.9,.39l.03,.03c-1.17-.11-2.35,.15-3.38,.73-1.03,.58-1.84,1.47-2.34,2.54-.5,1.07-.66,2.26-.46,3.43,.2,1.16,.76,2.23,1.6,3.07,.83,.83,1.91,1.39,3.07,1.59,1.16,.2,2.36,.04,3.43-.46,1.07-.5,1.95-1.32,2.54-2.35,.59-1.02,.84-2.2,.73-3.38l.03,.03c-.08-.98,.05-1.97,.39-2.89,.34-.93,.88-1.76,1.57-2.46,.7-.7,1.54-1.23,2.46-1.57,.93-.34,1.91-.47,2.9-.39l-.03-.03c.96,.09,1.93-.07,2.81-.46,.88-.39,1.65-.99,2.24-1.75,.59-.76,.97-1.66,1.12-2.61,.15-.95,.05-1.93-.28-2.83-.33-.9-.88-1.71-1.61-2.35-.73-.63-1.6-1.08-2.54-1.28-.94-.21-1.92-.17-2.84,.1-.93,.27-1.77,.77-2.45,1.45h0Z"/>
      <path class="cls-3" d="M104,54.43l-.03-.03c.87,.09,1.74-.02,2.56-.31,.82-.29,1.57-.76,2.18-1.38,.61-.62,1.09-1.36,1.38-2.18,.29-.82,.4-1.69,.31-2.56l.03,.03c-.09-1.02,.05-2.04,.4-3.01,.35-.96,.91-1.83,1.63-2.55,.72-.72,1.6-1.28,2.56-1.63,.96-.35,1.99-.49,3.01-.4l-.03-.03c1.22,.12,2.44-.15,3.51-.76,1.06-.61,1.91-1.53,2.43-2.63,.52-1.11,.69-2.35,.48-3.56-.21-1.21-.79-2.32-1.65-3.18-.87-.87-1.98-1.44-3.18-1.65-1.21-.21-2.45-.04-3.56,.48-1.11,.52-2.03,1.37-2.64,2.43-.61,1.06-.87,2.29-.76,3.51l-.03-.03c.09,1.02-.05,2.04-.4,3.01-.35,.96-.91,1.83-1.63,2.56-.72,.72-1.6,1.28-2.56,1.63-.96,.35-1.99,.49-3.01,.4l.03,.03c-.87-.09-1.74,.02-2.56,.31-.82,.29-1.57,.76-2.18,1.38-.61,.62-1.09,1.36-1.38,2.18-.29,.82-.4,1.69-.31,2.56l-.03-.03c.09,1.02-.05,2.04-.4,3-.35,.96-.91,1.83-1.63,2.56-.72,.72-1.6,1.28-2.56,1.63-.96,.35-1.99,.49-3,.4l.03,.03c-1.22-.12-2.44,.15-3.51,.76-1.06,.61-1.91,1.53-2.43,2.64-.52,1.11-.69,2.35-.48,3.55,.21,1.21,.79,2.32,1.65,3.18s1.98,1.44,3.18,1.65c1.21,.21,2.45,.04,3.56-.48,1.11-.52,2.03-1.37,2.64-2.43s.87-2.29,.76-3.51l.03,.03c-.09-1.02,.05-2.04,.4-3.01,.35-.96,.91-1.83,1.63-2.56,.72-.72,1.6-1.28,2.56-1.63,.96-.35,1.99-.49,3.01-.4Z"/>
      <path class="cls-2" d="M93.28,50.82c.59-.59,1.04-1.31,1.33-2.1s.39-1.63,.3-2.46l.03,.03c-.08-.98,.05-1.97,.39-2.9,.34-.93,.88-1.77,1.57-2.46,.7-.7,1.54-1.23,2.46-1.57,.93-.34,1.92-.47,2.9-.39l-.03-.03c1.17,.11,2.35-.15,3.38-.73,1.02-.58,1.84-1.47,2.35-2.54s.66-2.26,.46-3.42c-.2-1.16-.76-2.23-1.59-3.07-.83-.83-1.9-1.39-3.07-1.59-1.16-.2-2.36-.04-3.43,.46-1.07,.5-1.95,1.32-2.54,2.34-.59,1.02-.84,2.2-.73,3.38l-.03-.03c.08,.98-.05,1.97-.39,2.9-.34,.93-.88,1.76-1.57,2.46-.7,.7-1.54,1.23-2.46,1.57-.93,.34-1.91,.47-2.9,.39l.03,.03c-.96-.09-1.93,.07-2.81,.46-.88,.39-1.65,.99-2.24,1.75-.59,.76-.97,1.66-1.12,2.61s-.05,1.93,.28,2.83c.33,.9,.88,1.71,1.61,2.35,.72,.63,1.6,1.08,2.54,1.28,.94,.21,1.92,.17,2.84-.1,.92-.27,1.77-.77,2.45-1.45h0Z"/>
    </g>
  </g>
</svg>
